<?xml version="1.0" encoding="UTF-8" standalone="no"?>
<!-- Created with Inkscape (http://www.inkscape.org/) -->

<svg
   width="207mm"
   height="226mm"
   viewBox="0 0 207 226"
   version="1.1"
   id="svg5"
   sodipodi:docname="bleed.svg"
   inkscape:version="1.1.2 (b8e25be833, 2022-02-05)"
   inkscape:export-filename="C:\workSpace\display\view\pic\bleedAir\base.png"
   inkscape:export-xdpi="100.02"
   inkscape:export-ydpi="100.02"
   xmlns:inkscape="http://www.inkscape.org/namespaces/inkscape"
   xmlns:sodipodi="http://sodipodi.sourceforge.net/DTD/sodipodi-0.dtd"
   xmlns="http://www.w3.org/2000/svg"
   xmlns:svg="http://www.w3.org/2000/svg">
  <sodipodi:namedview
     id="namedview7"
     pagecolor="#505050"
     bordercolor="#eeeeee"
     borderopacity="1"
     inkscape:pageshadow="0"
     inkscape:pageopacity="0"
     inkscape:pagecheckerboard="0"
     inkscape:document-units="mm"
     showgrid="false"
     inkscape:zoom="1.062622"
     inkscape:cx="424.35557"
     inkscape:cy="525.73123"
     inkscape:window-width="1920"
     inkscape:window-height="1009"
     inkscape:window-x="-8"
     inkscape:window-y="-8"
     inkscape:window-maximized="1"
     inkscape:current-layer="layer13"
     width="209mm"
     showguides="true"
     inkscape:guide-bbox="true">
    <sodipodi:guide
       position="103.45209,307.75625"
       orientation="1,0"
       id="guide14888" />
  </sodipodi:namedview>
  <defs
     id="defs2" />
  <g
     inkscape:groupmode="layer"
     id="layer13"
     inkscape:label="base"
     style="display:inline">
    <path
       id="kopie Bez názvu-5"
       fill="none"
       stroke="#000000"
       stroke-width="2.09673"
       d="m 103.54013,0.864156 c 0,0 4.64518,-1.14651 9.54926,28.780964 2.69245,12.03458 1.75305,52.04388 1.75305,52.04388 0,0 5.87305,4.15699 10.45167,8.88355 0.0591,0.0591 0.1109,0.11087 0.14806,0.16271 -0.38463,-5.3405 -0.0591,-13.27727 0,-13.86161 1.08732,-2.43354 10.6218,-2.3078 11.67215,-0.0963 0.53257,2.79598 0.9394,10.44429 -0.22929,14.51991 0,0.0222 -0.0222,0.0813 -0.0222,0.0813 0,0 -0.90241,4.24579 -1.4202,5.17777 11.83486,5.8879 40.45309,21.36941 48.44903,25.94804 7.67049,4.02386 13.63969,7.21186 17.19756,9.43091 0,0 0.0369,0.0222 0.10358,0.0591 1.51634,1.33141 3.51347,2.18943 4.05344,5.3035 0.65091,2.68503 0.42162,5.36268 0,7.58172 0,0 -1.33882,-3.88331 -2.40396,-4.52686 -1.89358,-2.13027 -4.11261,-2.58887 -6.28727,-2.95871 -9.749,-2.91434 -28.29276,-10.00047 -37.96038,-12.38225 0,0 -0.10358,4.07565 -0.17004,4.1644 -0.2219,0.9542 -0.50299,1.22049 -0.90982,1.25747 -0.36984,-0.0517 -0.74706,-0.2441 -1.15389,-1.27966 0,-0.0887 -0.0147,-4.80793 -0.0147,-4.80793 0,0 -16.15463,-3.6762 -16.15463,-3.6762 0,0 0.0147,3.10665 -0.32545,3.7058 -0.79146,2.29302 -0.88761,1.81222 -1.37579,0.45122 -0.0222,-0.0591 -0.17005,-0.42164 -0.19227,-0.48082 -0.25891,-0.77665 -0.28849,-2.44094 -0.31068,-4.3715 0,0 -0.59914,-0.75447 -2.21905,-0.85803 0,0 -5.25171,0 -5.25171,0 0,0 0.14806,3.2546 0.0518,3.93509 -1.11691,3.44693 -2.24125,0.0148 -2.24125,0.0148 -0.24407,-1.49415 -0.1183,-3.4987 -0.0962,-3.89071 -2.79598,-0.51039 -13.22548,0.0445 -13.22548,0.0445 0,0 0.5104,38.74443 -0.0887,49.88401 0,0.0962 -0.36983,12.20473 -3.79454,21.17703 0,0 33.38174,25.70389 33.38174,25.70389 0,0 0.41423,4.85231 -0.18493,7.58173 0,0 -23.66974,-7.72226 -39.69121,-11.82009 0,0 0.1627,1.8344 -0.16271,2.47793 -0.96898,3.65402 -1.87138,0.007 -1.90098,-0.0296 -0.32546,-0.64353 -0.13312,-2.47054 -0.13312,-2.47054 -16.01406,4.10523 -39.68383,11.82009 -39.68383,11.82009 -0.60655,-2.72202 -0.19228,-7.57432 -0.19228,-7.57432 0,0 33.3818,-25.71129 33.3818,-25.71129 -3.42474,-8.96492 -3.79459,-21.08087 -3.79459,-21.16965 -0.59913,-11.13956 -0.0887,-49.88403 -0.0887,-49.88403 0,0 -10.42209,-0.55475 -13.22546,-0.0444 0.0296,0.39204 0.14805,2.38918 -0.0963,3.89072 0,0 -1.11691,3.43211 -2.23384,-0.0221 -0.10363,-0.67309 0.0444,-3.92771 0.0444,-3.92771 0,0 -5.25173,0 -5.25173,0 -1.61989,0.10364 -2.21163,0.85805 -2.21163,0.85805 -0.0221,1.93056 -0.0591,3.59483 -0.31065,4.36411 -0.0221,0.0665 -0.1776,0.42901 -0.19982,0.48817 -0.48822,1.36101 -0.57697,1.84182 -1.37581,-0.45119 -0.33285,-0.59914 -0.32546,-3.7058 -0.32546,-3.7058 0,0 -16.15463,3.66882 -16.15463,3.66882 0,0 -0.0148,4.71915 -0.0148,4.81532 -0.40681,1.03553 -0.78405,1.22785 -1.1539,1.27964 -0.39942,-0.0369 -0.68788,-0.30327 -0.90981,-1.25745 -0.0591,-0.0887 -0.17005,-4.16439 -0.17005,-4.16439 -9.66761,2.37435 -28.20397,9.46788 -37.96037,12.37483 -2.17464,0.36984 -4.3937,0.83584 -6.28728,2.95872 -1.06514,0.65092 -2.40396,4.53424 -2.40396,4.53424 -0.4142,-2.21905 -0.6509,-4.90407 0,-7.58172 0.53997,-3.12144 2.54452,-3.97949 4.06085,-5.30352 0.0667,-0.0369 0.0963,-0.0591 0.0963,-0.0591 3.56525,-2.21905 9.5271,-5.40709 17.20497,-9.43094 7.99594,-4.57863 36.61415,-20.06011 48.44166,-25.95537 -0.5178,-0.92459 -1.41282,-5.17777 -1.41282,-5.17777 0,0 -0.0296,-0.0518 -0.0296,-0.074 -1.16871,-4.07563 -0.75447,-11.72393 -0.2293,-14.52733 1.05032,-2.20423 10.5848,-2.32999 11.67216,0.0963 0.0591,0.59174 0.3846,8.52852 0,13.86161 0.0444,-0.0445 0.0887,-0.0962 0.14776,-0.15538 4.57861,-4.73395 10.45908,-8.88356 10.45908,-8.88356 0,0 -0.94681,-40.00927 1.74563,-52.05128 4.91148,-29.920034 9.54928,-28.773524 9.54928,-28.773524 M -4.71907,56.16247"
       style="display:inline;fill:#ff0045;fill-opacity:0;stroke:#ffffff;stroke-width:0.5;stroke-miterlimit:4;stroke-dasharray:none;stroke-opacity:1" />
    <path
       style="display:inline;fill:none;stroke:#0097ff;stroke-width:0.5;stroke-linecap:butt;stroke-linejoin:miter;stroke-miterlimit:4;stroke-dasharray:none;stroke-opacity:1"
       d="m 102.42517,211.57013 c -0.0441,0.99026 -0.12739,2.03047 0.13897,2.62498 0.60482,2.21129 1.37128,2.17455 1.90098,0.0296 0.31706,-0.79056 0.15761,-1.774 0.17581,-2.66095 z"
       id="path2238-8"
       sodipodi:nodetypes="ccccc" />
    <path
       id="path4914-4"
       style="display:inline;fill:none;stroke:#0097ff;stroke-width:0.499999;stroke-linecap:butt;stroke-linejoin:miter;stroke-miterlimit:4;stroke-dasharray:none;stroke-opacity:1"
       d="m 101.43618,206.00448 c -0.61303,2.37539 -0.27851,3.80701 0.98899,5.56565 l 1.02691,-5.2e-4 1.18908,-0.005 c 1.2675,-1.75865 1.43986,-3.18448 0.82682,-5.55987 l -2.0159,0.004 z"
       sodipodi:nodetypes="ccccccc" />
    <path
       id="path6783-4"
       style="display:inline;fill:none;stroke:#0097ff;stroke-width:0.499999;stroke-linecap:butt;stroke-linejoin:miter;stroke-miterlimit:4;stroke-dasharray:none;stroke-opacity:1"
       d="m 105.24688,205.90212 -0.006,-1.30569 -3.51618,0.0194 -0.0117,1.35357"
       sodipodi:nodetypes="cccc" />
    <path
       style="display:inline;fill:none;stroke:#0097ff;stroke-width:0.3;stroke-linecap:butt;stroke-linejoin:miter;stroke-miterlimit:4;stroke-dasharray:none;stroke-opacity:1"
       d="m 104.63284,204.62213 v 1.4056"
       id="path6785-4" />
    <path
       style="display:inline;fill:none;stroke:#0097ff;stroke-width:0.3;stroke-linecap:butt;stroke-linejoin:miter;stroke-miterlimit:4;stroke-dasharray:none;stroke-opacity:1"
       d="m 104.05265,204.63767 v 1.33945"
       id="path6787-1" />
    <path
       style="display:inline;fill:none;stroke:#0097ff;stroke-width:0.3;stroke-linecap:butt;stroke-linejoin:miter;stroke-miterlimit:4;stroke-dasharray:none;stroke-opacity:1"
       d="m 103.45209,204.6304 v 1.37797"
       id="path6789-6" />
    <path
       style="display:inline;fill:none;stroke:#0097ff;stroke-width:0.3;stroke-linecap:butt;stroke-linejoin:miter;stroke-miterlimit:4;stroke-dasharray:none;stroke-opacity:1"
       d="m 102.29472,204.63967 v 1.4056"
       id="path6785-5-6" />
    <path
       style="display:inline;fill:none;stroke:#0097ff;stroke-width:0.3;stroke-linecap:butt;stroke-linejoin:miter;stroke-miterlimit:4;stroke-dasharray:none;stroke-opacity:1"
       d="m 102.87492,204.62598 v 1.33945"
       id="path6787-4-6" />
    <rect
       style="display:inline;fill:#000000;fill-opacity:1;fill-rule:evenodd;stroke:#0097ff;stroke-width:0.5;stroke-linecap:square;stroke-linejoin:round;stroke-miterlimit:4;stroke-dasharray:none;stroke-dashoffset:23.7732;stroke-opacity:1"
       id="rect12596-0"
       width="16.536459"
       height="14.684375"
       x="85.394272"
       y="65.219788" />
    <circle
       style="display:inline;fill:#000000;fill-opacity:1;fill-rule:evenodd;stroke:#0097ff;stroke-width:0.55607;stroke-linecap:square;stroke-linejoin:round;stroke-miterlimit:4;stroke-dasharray:none;stroke-dashoffset:23.7732;stroke-opacity:1"
       id="path12839-5"
       cx="103.46416"
       cy="38.073059"
       r="10.225309" />
    <rect
       style="display:inline;fill:#000000;fill-opacity:1;fill-rule:evenodd;stroke:#0097ff;stroke-width:0.5;stroke-linecap:square;stroke-linejoin:round;stroke-miterlimit:4;stroke-dasharray:none;stroke-dashoffset:23.7732;stroke-opacity:1"
       id="rect12596-6-3"
       width="16.536459"
       height="14.684375"
       x="-121.5099"
       y="65.219788"
       transform="scale(-1,1)" />
    <path
       id="path13626-7-7"
       style="display:inline;fill:none;stroke:#0097ff;stroke-width:0.426181;stroke-linecap:butt;stroke-linejoin:miter;stroke-miterlimit:4;stroke-dasharray:none;stroke-opacity:1"
       d="m 116.42021,100.64065 v 1.24082 l 0.0165,-0.004 v 1.706 h -0.82683 v -1.00918 h -2.61276 c 0.0891,-0.31304 -0.0165,-0.92508 -0.0165,-0.92508 h 2.61276 v -1.00922 z"
       sodipodi:nodetypes="ccccccccccc" />
    <path
       id="path13626-7-8-9"
       style="display:inline;fill:none;stroke:#0097ff;stroke-width:0.426181;stroke-linecap:butt;stroke-linejoin:miter;stroke-miterlimit:4;stroke-dasharray:none;stroke-opacity:1"
       d="m 90.479514,100.57242 v 1.24082 l -0.0165,-0.004 v 1.706 h 0.82683 v -1.00918 h 2.61275 c -0.0891,-0.31304 0.0165,-0.92508 0.0165,-0.92508 h -2.61276 v -1.00921 z"
       sodipodi:nodetypes="ccccccccccc" />
    <path
       style="display:inline;fill:none;stroke:#808080;stroke-width:1.5;stroke-linecap:butt;stroke-linejoin:miter;stroke-miterlimit:4;stroke-dasharray:none;stroke-opacity:1"
       d="m 109.87297,105.91967 -0.0196,13.59203 c 0.18696,7.14377 1.7847,12.5819 5.53691,12.60327"
       id="path12569-6-6"
       sodipodi:nodetypes="ccc" />
    <path
       style="display:inline;fill:none;stroke:#808080;stroke-width:1.5;stroke-linecap:butt;stroke-linejoin:miter;stroke-miterlimit:4;stroke-dasharray:none;stroke-opacity:1"
       d="m 93.86932,65.06941 c 0.91895,-6.15165 1.16444,-12.26069 3.82896,-18.5228"
       id="path12874-2"
       sodipodi:nodetypes="cc" />
    <path
       style="display:inline;fill:none;stroke:#808080;stroke-width:1.5;stroke-linecap:butt;stroke-linejoin:miter;stroke-miterlimit:4;stroke-dasharray:none;stroke-opacity:1"
       d="m 113.03486,65.06941 c -0.91895,-6.15165 -1.16444,-12.2607 -3.82896,-18.5228"
       id="path12874-0-3"
       sodipodi:nodetypes="cc" />
    <path
       style="display:inline;fill:none;stroke:#808080;stroke-width:1.5;stroke-linecap:butt;stroke-linejoin:miter;stroke-miterlimit:4;stroke-dasharray:none;stroke-opacity:1"
       d="M 130.94532,105.71038 H 113.43688 V 80.02702"
       id="path12567-9-8"
       sodipodi:nodetypes="ccc" />
    <path
       style="display:inline;fill:none;stroke:#808080;stroke-width:1.5;stroke-linecap:butt;stroke-linejoin:miter;stroke-miterlimit:4;stroke-dasharray:none;stroke-opacity:1"
       d="m 113.36616,105.70104 h -9.91407"
       id="path12713-6-8" />
    <path
       style="display:inline;fill:none;stroke:#808080;stroke-width:1.5;stroke-linecap:butt;stroke-linejoin:miter;stroke-miterlimit:4;stroke-dasharray:none;stroke-opacity:1"
       d="m 130.94532,105.71038 13.26892,6.27416"
       id="path12711-4-2"
       sodipodi:nodetypes="cc" />
    <path
       style="display:inline;fill:none;stroke:#808080;stroke-width:1.5;stroke-linecap:butt;stroke-linejoin:miter;stroke-miterlimit:4;stroke-dasharray:none;stroke-opacity:1"
       d="M 75.95886,105.71038 H 93.4673 V 80.02703"
       id="path12567-7"
       sodipodi:nodetypes="ccc" />
    <path
       style="display:inline;fill:none;stroke:#808080;stroke-width:1.5;stroke-linecap:butt;stroke-linejoin:miter;stroke-miterlimit:4;stroke-dasharray:none;stroke-opacity:1"
       d="m 93.53802,105.70104 h 9.91407"
       id="path12713-2" />
    <path
       style="display:inline;fill:none;stroke:#808080;stroke-width:1.5;stroke-linecap:butt;stroke-linejoin:miter;stroke-miterlimit:4;stroke-dasharray:none;stroke-opacity:1"
       d="m 75.95886,105.71038 -13.26892,6.27416"
       id="path12711-0"
       sodipodi:nodetypes="cc"
       inkscape:export-filename="C:\workSpace\display\view\pic\bleedAir\base.png"
       inkscape:export-xdpi="100.02"
       inkscape:export-ydpi="100.02" />
    <path
       style="display:inline;fill:none;stroke:#808080;stroke-width:1.5;stroke-linecap:butt;stroke-linejoin:miter;stroke-miterlimit:4;stroke-dasharray:none;stroke-opacity:1"
       d="M 75.95886,105.71038 V 92.12971"
       id="path5360-7-8-3-4" />
    <path
       style="display:inline;fill:none;stroke:#808080;stroke-width:1.5;stroke-linecap:butt;stroke-linejoin:miter;stroke-miterlimit:4;stroke-dasharray:none;stroke-opacity:1"
       d="M 75.95886,92.12971 V 81.459"
       id="path5360-7-0-2" />
    <path
       style="display:inline;fill:none;stroke:#808080;stroke-width:1.5;stroke-linecap:butt;stroke-linejoin:miter;stroke-miterlimit:4;stroke-dasharray:none;stroke-opacity:1"
       d="M 130.94532,92.12971 V 81.459"
       id="path5360-7-80" />
    <path
       style="display:inline;fill:none;stroke:#808080;stroke-width:1.5;stroke-linecap:butt;stroke-linejoin:miter;stroke-miterlimit:4;stroke-dasharray:none;stroke-opacity:1"
       d="M 130.94532,105.71038 V 92.12971"
       id="path5360-7-8-8" />
    <path
       style="display:inline;fill:none;stroke:#808080;stroke-width:1.5;stroke-linecap:butt;stroke-linejoin:miter;stroke-miterlimit:4;stroke-dasharray:none;stroke-opacity:1"
       d="m 103.45209,54.30149 v -5.9421"
       id="path5360-7-9-5-5" />
    <path
       style="display:inline;fill:none;stroke:#808080;stroke-width:1.5;stroke-linecap:butt;stroke-linejoin:miter;stroke-miterlimit:4;stroke-dasharray:none;stroke-opacity:1"
       d="M 103.45209,27.628525 V 18.693419"
       id="path5360-7-9-3" />
    <path
       style="display:inline;fill:none;stroke:#808080;stroke-width:1.5;stroke-linecap:butt;stroke-linejoin:miter;stroke-miterlimit:4;stroke-dasharray:none;stroke-opacity:1"
       d="m 97.76354,120.84279 v 57.22179 c 0,0 0.82397,13.65041 4.91461,24.15794 0.24599,0.63187 0.77394,1.38967 0.77394,2.14946"
       id="path12569-63"
       sodipodi:nodetypes="ccsc" />
    <path
       style="display:inline;fill:none;stroke:#808080;stroke-width:1.5;stroke-linecap:butt;stroke-linejoin:miter;stroke-miterlimit:4;stroke-dasharray:none;stroke-opacity:1"
       d="m 97.76354,105.70104 v 15.14175"
       id="path12569-5-1"
       sodipodi:nodetypes="cc" />
  </g>
  <g
     inkscape:groupmode="layer"
     id="layer12"
     inkscape:label="asu"
     style="display:none">
    <path
       style="display:inline;fill:none;stroke:#ffb621;stroke-width:1.5;stroke-linecap:butt;stroke-linejoin:miter;stroke-miterlimit:4;stroke-dasharray:none;stroke-opacity:1"
       d="m 109.87297,105.91967 -0.0196,13.59203 c 0.18696,7.14377 1.7847,12.5819 5.53691,12.60327"
       id="path12569-6"
       sodipodi:nodetypes="ccc" />
  </g>
  <g
     inkscape:groupmode="layer"
     id="layer6"
     inkscape:label="l pack out"
     style="display:none">
    <path
       style="display:inline;fill:none;stroke:#33deff;stroke-width:1.5;stroke-linecap:butt;stroke-linejoin:miter;stroke-miterlimit:4;stroke-dasharray:none;stroke-opacity:1"
       d="m 93.869317,65.069411 c 0.918958,-6.151656 1.164445,-12.2607 3.828968,-18.5228"
       id="path12874"
       sodipodi:nodetypes="cc" />
  </g>
  <g
     inkscape:groupmode="layer"
     id="layer7"
     inkscape:label="r pack out "
     style="display:none">
    <path
       style="display:inline;fill:none;stroke:#33deff;stroke-width:1.5;stroke-linecap:butt;stroke-linejoin:miter;stroke-miterlimit:4;stroke-dasharray:none;stroke-opacity:1"
       d="m 113.03486,65.06941 c -0.91895,-6.151656 -1.16444,-12.2607 -3.82896,-18.5228"
       id="path12874-0"
       sodipodi:nodetypes="cc" />
  </g>
  <g
     inkscape:groupmode="layer"
     id="layer5"
     inkscape:label="r pack"
     style="display:none">
    <path
       style="display:inline;fill:none;stroke:#ffb621;stroke-width:1.5;stroke-linecap:butt;stroke-linejoin:miter;stroke-miterlimit:4;stroke-dasharray:none;stroke-opacity:1"
       d="m 113.36616,105.70104 h -9.91407"
       id="path12713-6" />
    <path
       style="display:inline;fill:none;stroke:#ffb621;stroke-width:1.5;stroke-linecap:butt;stroke-linejoin:miter;stroke-miterlimit:4;stroke-dasharray:none;stroke-opacity:1"
       d="m 144.21424,111.98454 -13.26892,-6.27416 H 113.43688 V 95.651059"
       id="path12711-4"
       sodipodi:nodetypes="cccc" />
  </g>
  <g
     inkscape:groupmode="layer"
     id="layer16"
     inkscape:label="r pack 1"
     style="display:none">
    <path
       style="display:inline;fill:none;stroke:#ffb621;stroke-width:1.5;stroke-linecap:butt;stroke-linejoin:miter;stroke-miterlimit:4;stroke-dasharray:none;stroke-opacity:1"
       d="M 113.43688,95.78574 V 80.02702"
       id="path5360-7-8-3-7-7" />
  </g>
  <g
     inkscape:groupmode="layer"
     id="layer17"
     inkscape:label="l pack 1"
     style="display:none">
    <path
       style="display:inline;fill:none;stroke:#ffb621;stroke-width:1.5;stroke-linecap:butt;stroke-linejoin:miter;stroke-miterlimit:4;stroke-dasharray:none;stroke-opacity:1"
       d="M 93.4673,95.785749 V 80.02703"
       id="path5360-7-8-3-7" />
  </g>
  <g
     inkscape:groupmode="layer"
     id="layer4"
     inkscape:label="l pack"
     style="display:none">
    <path
       style="display:inline;fill:none;stroke:#ffb621;stroke-width:1.5;stroke-linecap:butt;stroke-linejoin:miter;stroke-miterlimit:4;stroke-dasharray:none;stroke-opacity:1"
       d="m 93.538021,105.70104 h 9.914069"
       id="path12713" />
    <path
       style="display:inline;fill:none;stroke:#ffb621;stroke-width:1.5;stroke-linecap:butt;stroke-linejoin:miter;stroke-miterlimit:4;stroke-dasharray:none;stroke-opacity:1"
       d="m 62.689936,111.98454 13.268922,-6.27416 H 93.467296 V 95.65106"
       id="path12711"
       sodipodi:nodetypes="cccc"
       inkscape:export-filename="C:\workSpace\display\view\pic\bleedAir\base.png"
       inkscape:export-xdpi="100.02"
       inkscape:export-ydpi="100.02" />
  </g>
  <g
     inkscape:groupmode="layer"
     id="layer2"
     inkscape:label="eng1"
     style="display:none">
    <path
       style="display:inline;fill:none;stroke:#ffb621;stroke-width:1.5;stroke-linecap:butt;stroke-linejoin:miter;stroke-miterlimit:4;stroke-dasharray:none;stroke-opacity:1"
       d="M 75.958858,105.71038 V 92.129708"
       id="path5360-7-8-3" />
  </g>
  <g
     inkscape:groupmode="layer"
     id="layer9"
     inkscape:label="eng1source"
     style="display:none">
    <path
       style="display:inline;fill:none;stroke:#ffb621;stroke-width:1.5;stroke-linecap:butt;stroke-linejoin:miter;stroke-miterlimit:4;stroke-dasharray:none;stroke-opacity:1"
       d="M 75.958858,92.129708 V 81.458993"
       id="path5360-7-0" />
  </g>
  <g
     inkscape:groupmode="layer"
     id="layer10"
     inkscape:label="eng2source"
     style="display:none">
    <path
       style="display:inline;fill:none;stroke:#ffb621;stroke-width:1.5;stroke-linecap:butt;stroke-linejoin:miter;stroke-miterlimit:4;stroke-dasharray:none;stroke-opacity:1"
       d="M 130.94532,92.12971 V 81.458995"
       id="path5360-7" />
  </g>
  <g
     inkscape:groupmode="layer"
     id="layer3"
     inkscape:label="eng2"
     style="display:none">
    <path
       style="display:inline;fill:none;stroke:#ffb621;stroke-width:1.5;stroke-linecap:butt;stroke-linejoin:miter;stroke-miterlimit:4;stroke-dasharray:none;stroke-opacity:1"
       d="M 130.94532,105.71038 V 92.12971"
       id="path5360-7-8"
       inkscape:export-filename="C:\workSpace\display\view\pic\bleedAir\path5360-7-8.png"
       inkscape:export-xdpi="100.02"
       inkscape:export-ydpi="100.02" />
  </g>
  <g
     inkscape:groupmode="layer"
     id="layer15"
     inkscape:label="airCondGrd"
     style="display:none">
    <path
       style="display:inline;fill:none;stroke:#33deff;stroke-width:1.5;stroke-linecap:butt;stroke-linejoin:miter;stroke-miterlimit:4;stroke-dasharray:none;stroke-opacity:1"
       d="M 103.45209,54.301485 V 48.359386"
       id="path5360-7-9-5" />
  </g>
  <g
     inkscape:groupmode="layer"
     id="layer11"
     inkscape:label="distribution"
     style="display:none">
    <path
       style="display:inline;fill:none;stroke:#0064fd;stroke-width:1.5;stroke-linecap:butt;stroke-linejoin:miter;stroke-miterlimit:4;stroke-dasharray:none;stroke-opacity:1"
       d="M 103.45209,27.628521 V 18.693415"
       id="path5360-7-9" />
  </g>
  <g
     inkscape:groupmode="layer"
     id="layer1"
     inkscape:label="apu"
     style="display:none">
    <path
       style="display:inline;fill:none;stroke:#ffb621;stroke-width:1.5;stroke-linecap:butt;stroke-linejoin:miter;stroke-miterlimit:4;stroke-dasharray:none;stroke-opacity:1"
       d="m 97.763538,105.70104 v 15.14175"
       id="path12569-5"
       sodipodi:nodetypes="cc" />
  </g>
  <g
     inkscape:groupmode="layer"
     id="layer14"
     inkscape:label="apu source"
     style="display:none">
    <path
       style="display:inline;fill:none;stroke:#ffb621;stroke-width:1.5;stroke-linecap:butt;stroke-linejoin:miter;stroke-miterlimit:4;stroke-dasharray:none;stroke-opacity:1"
       d="m 97.763538,120.84279 v 57.22179 c 0,0 0.823976,13.65041 4.914612,24.15794 0.24599,0.63187 0.77394,1.38967 0.77394,2.14946"
       id="path12569"
       sodipodi:nodetypes="ccsc" />
  </g>
</svg>
