<?xml version="1.0" encoding="UTF-8" standalone="no"?>
<!-- Created with Inkscape (http://www.inkscape.org/) -->

<svg
   width="207mm"
   height="226mm"
   viewBox="0 0 207 226"
   version="1.1"
   id="svg5"
   sodipodi:docname="antiice.svg"
   inkscape:version="1.1.2 (b8e25be833, 2022-02-05)"
   inkscape:export-filename="C:\workSpace\display\view\pic\antiice\wingL.png"
   inkscape:export-xdpi="100.02"
   inkscape:export-ydpi="100.02"
   xmlns:inkscape="http://www.inkscape.org/namespaces/inkscape"
   xmlns:sodipodi="http://sodipodi.sourceforge.net/DTD/sodipodi-0.dtd"
   xmlns="http://www.w3.org/2000/svg"
   xmlns:svg="http://www.w3.org/2000/svg">
  <sodipodi:namedview
     id="namedview7"
     pagecolor="#505050"
     bordercolor="#eeeeee"
     borderopacity="1"
     inkscape:pageshadow="0"
     inkscape:pageopacity="0"
     inkscape:pagecheckerboard="0"
     inkscape:document-units="mm"
     showgrid="false"
     inkscape:zoom="1"
     inkscape:cx="215.5"
     inkscape:cy="400"
     inkscape:window-width="1920"
     inkscape:window-height="1009"
     inkscape:window-x="-1928"
     inkscape:window-y="-8"
     inkscape:window-maximized="1"
     inkscape:current-layer="layer4"
     width="209mm"
     showguides="true"
     inkscape:guide-bbox="true">
    <sodipodi:guide
       position="103.45209,307.75625"
       orientation="1,0"
       id="guide14888" />
    <sodipodi:guide
       position="80.635218,189.09676"
       orientation="0,-1"
       id="guide28243" />
    <sodipodi:guide
       position="77.985939,213.03542"
       orientation="0,-1"
       id="guide74929" />
  </sodipodi:namedview>
  <defs
     id="defs2" />
  <g
     inkscape:groupmode="layer"
     id="layer11"
     inkscape:label="probes"
     style="display:inline">
    <path
       style="fill:#0097ff;fill-opacity:1;stroke:none;stroke-width:0.264583px;stroke-linecap:butt;stroke-linejoin:miter;stroke-opacity:1"
       d="m 110.60448,17.679879 1.78904,-1.964431 v -2.6894 l 1.30962,-0.01169 -0.0117,3.22728 -2.70108,3.250666 z"
       id="path65977"
       sodipodi:nodetypes="ccccccc" />
    <path
       style="fill:#0097ff;fill-opacity:1;stroke:none;stroke-width:0.264583px;stroke-linecap:butt;stroke-linejoin:miter;stroke-opacity:1"
       d="m 104.71493,186.21298 1.78904,-1.96443 v -2.6894 l 1.30962,-0.0117 -0.0117,3.22728 -2.70108,3.25067 z"
       id="path65977-8"
       sodipodi:nodetypes="ccccccc" />
    <path
       style="fill:#0097ff;fill-opacity:1;stroke:none;stroke-width:0.285989px;stroke-linecap:butt;stroke-linejoin:miter;stroke-opacity:1"
       d="m 112.1772,23.83738 2.69607,-2.342678 0.0234,-2.470854 1.2211,-0.01074 -0.0149,2.965025 -3.62205,3.196986 z"
       id="path65977-1"
       sodipodi:nodetypes="ccccccc" />
    <path
       style="fill:#0097ff;fill-opacity:1;stroke:none;stroke-width:0.264583px;stroke-linecap:butt;stroke-linejoin:miter;stroke-opacity:1"
       d="m 112.65462,28.326953 4.39043,0.74414 v 1.058334 l -4.18785,-0.607715 z"
       id="path68013"
       sodipodi:nodetypes="ccccc" />
    <path
       style="fill:#0097ff;fill-opacity:1;stroke:none;stroke-width:0.264583px;stroke-linecap:butt;stroke-linejoin:miter;stroke-opacity:1"
       d="m 96.386231,17.618415 -1.78904,-1.964431 v -2.6894 l -1.30962,-0.01169 0.0117,3.22728 2.70108,3.250666 z"
       id="path65977-0"
       sodipodi:nodetypes="ccccccc" />
    <path
       style="fill:#0097ff;fill-opacity:1;stroke:none;stroke-width:0.264583px;stroke-linecap:butt;stroke-linejoin:miter;stroke-opacity:1"
       d="m 102.27578,186.15152 -1.78904,-1.96443 v -2.6894 l -1.309621,-0.0117 0.0117,3.22728 2.701081,3.25067 z"
       id="path65977-8-5"
       sodipodi:nodetypes="ccccccc" />
    <path
       style="fill:#0097ff;fill-opacity:1;stroke:none;stroke-width:0.285989px;stroke-linecap:butt;stroke-linejoin:miter;stroke-opacity:1"
       d="m 94.813511,23.775916 -2.69607,-2.342678 -0.0234,-2.470854 -1.2211,-0.01074 0.0149,2.965025 3.62205,3.196986 z"
       id="path65977-1-7"
       sodipodi:nodetypes="ccccccc" />
    <path
       style="fill:#0097ff;fill-opacity:1;stroke:none;stroke-width:0.264583px;stroke-linecap:butt;stroke-linejoin:miter;stroke-opacity:1"
       d="m 94.336091,28.265489 -4.39043,0.74414 v 1.058334 l 4.18785,-0.607715 z"
       id="path68013-5"
       sodipodi:nodetypes="ccccc" />
    <path
       style="fill:none;stroke:#ffffff;stroke-width:0.264583px;stroke-linecap:butt;stroke-linejoin:miter;stroke-opacity:1"
       d="m 103.58071,223.43833 c 0,0 -4.030355,-33.86305 0,-45.55609 3.74972,11.69304 0,45.55609 0,45.55609 z"
       id="path74145"
       sodipodi:nodetypes="ccc" />
  </g>
  <g
     inkscape:label="base plane"
     inkscape:groupmode="layer"
     id="layer1"
     style="display:inline">
    <path
       id="kopie Bez názvu"
       fill="none"
       stroke="#000000"
       stroke-width="2.09673"
       d="m 103.54013,0.86415167 c 0,0 4.64518,-1.14651 9.54926,28.78096033 2.69245,12.03458 1.75305,52.043885 1.75305,52.043885 0,0 5.87305,4.15699 10.45167,8.88355 0.0591,0.0591 0.1109,0.11087 0.14806,0.16271 -0.38463,-5.3405 -0.0591,-13.27727 0,-13.86161 1.08732,-2.43354 10.6218,-2.3078 11.67215,-0.0963 0.53257,2.79598 0.9394,10.44429 -0.22929,14.51991 0,0.0222 -0.0222,0.0813 -0.0222,0.0813 0,0 -0.90241,4.24579 -1.4202,5.17777 11.83486,5.887903 40.45309,21.369413 48.44903,25.948043 7.67049,4.02386 13.63969,7.21186 17.19756,9.43091 0,0 0.0369,0.0222 0.10358,0.0591 1.51634,1.33141 3.51347,2.18943 4.05344,5.3035 0.65091,2.68503 0.42162,5.36268 0,7.58172 0,0 -1.33882,-3.88331 -2.40396,-4.52686 -1.89358,-2.13027 -4.11261,-2.58887 -6.28727,-2.95871 -9.749,-2.91434 -28.29276,-10.00047 -37.96038,-12.38225 0,0 -0.10358,4.07565 -0.17004,4.1644 -0.2219,0.9542 -0.50299,1.22049 -0.90982,1.25747 -0.36984,-0.0517 -0.74706,-0.2441 -1.15389,-1.27966 0,-0.0887 -0.0147,-4.80793 -0.0147,-4.80793 0,0 -16.15463,-3.6762 -16.15463,-3.6762 0,0 0.0147,3.10665 -0.32545,3.7058 -0.79146,2.29302 -0.88761,1.81222 -1.37579,0.45122 -0.0222,-0.0591 -0.17005,-0.42164 -0.19227,-0.48082 -0.25891,-0.77665 -0.28849,-2.44094 -0.31068,-4.3715 0,0 -0.59914,-0.75447 -2.21905,-0.85803 0,0 -5.25171,0 -5.25171,0 0,0 0.14806,3.2546 0.0518,3.93509 -1.11691,3.44693 -2.24125,0.0148 -2.24125,0.0148 -0.24407,-1.49415 -0.1183,-3.4987 -0.0962,-3.89071 -2.79598,-0.51039 -13.22548,0.0445 -13.22548,0.0445 0,0 0.5104,38.74443 -0.0887,49.88401 0,0.0962 -0.36983,12.20473 -3.79454,21.17703 0,0 33.38174,25.70389 33.38174,25.70389 0,0 0.41423,4.85231 -0.18493,7.58173 0,0 -23.66974,-7.72226 -39.69121,-11.82009 0,0 0.1627,1.8344 -0.16271,2.47793 -0.96898,3.65402 -1.87138,0.007 -1.90098,-0.0296 -0.32546,-0.64353 -0.13312,-2.47054 -0.13312,-2.47054 -16.014062,4.10523 -39.683832,11.82009 -39.683832,11.82009 -0.60655,-2.72202 -0.19228,-7.57432 -0.19228,-7.57432 0,0 33.381804,-25.71129 33.381804,-25.71129 -3.42474,-8.96492 -3.794594,-21.08087 -3.794594,-21.16965 -0.59913,-11.13956 -0.0887,-49.88403 -0.0887,-49.88403 0,0 -10.42209,-0.55475 -13.22546,-0.0444 0.0296,0.39204 0.14805,2.38918 -0.0963,3.89072 0,0 -1.11691,3.43211 -2.23384,-0.0221 -0.10363,-0.67309 0.0444,-3.92771 0.0444,-3.92771 0,0 -5.25173,0 -5.25173,0 -1.61989,0.10364 -2.21163,0.85805 -2.21163,0.85805 -0.0221,1.93056 -0.0591,3.59483 -0.31065,4.36411 -0.0221,0.0665 -0.1776,0.42901 -0.19982,0.48817 -0.48822,1.36101 -0.57697,1.84182 -1.37581,-0.45119 -0.33285,-0.59914 -0.32546,-3.7058 -0.32546,-3.7058 0,0 -16.15463,3.66882 -16.15463,3.66882 0,0 -0.0148,4.71915 -0.0148,4.81532 -0.40681,1.03553 -0.78405,1.22785 -1.1539,1.27964 -0.39942,-0.0369 -0.68788,-0.30327 -0.90981,-1.25745 -0.0591,-0.0887 -0.17005,-4.16439 -0.17005,-4.16439 -9.66761,2.37435 -28.20397,9.46788 -37.96037,12.37483 -2.1746397,0.36984 -4.3936997,0.83584 -6.2872797,2.95872 -1.06514,0.65092 -2.4039602,4.53424 -2.4039602,4.53424 -0.4142,-2.21905 -0.6509,-4.90407 0,-7.58172 0.5399702,-3.12144 2.5445202,-3.97949 4.0608502,-5.30352 0.0667,-0.0369 0.0963,-0.0591 0.0963,-0.0591 3.56525,-2.21905 9.5270997,-5.40709 17.2049697,-9.43094 7.99594,-4.57863 36.61415,-20.06011 48.44166,-25.955373 -0.5178,-0.92459 -1.41282,-5.17777 -1.41282,-5.17777 0,0 -0.0296,-0.0518 -0.0296,-0.074 -1.16871,-4.07563 -0.75447,-11.72393 -0.2293,-14.52733 1.05032,-2.20423 10.5848,-2.32999 11.67216,0.0963 0.0591,0.59174 0.3846,8.52852 0,13.86161 0.0444,-0.0445 0.0887,-0.0962 0.14776,-0.15538 4.57861,-4.73395 10.459084,-8.88356 10.459084,-8.88356 0,0 -0.946814,-40.009275 1.74563,-52.051285 4.91148,-29.92003033 9.549278,-28.77352033 9.549278,-28.77352033 M -4.7190719,56.162467"
       style="fill:#ff0045;fill-opacity:0;stroke:#ffffff;stroke-width:0.4;stroke-miterlimit:4;stroke-dasharray:none;stroke-opacity:1" />
  </g>
  <g
     inkscape:groupmode="layer"
     id="layer9"
     inkscape:label="windows"
     style="display:inline">
    <path
       style="display:inline;fill:none;stroke:#0097ff;stroke-width:0.272191px;stroke-linecap:butt;stroke-linejoin:miter;stroke-opacity:1"
       d="m 103.11583,25.256974 v 4.67814 c -1.38892,0.573683 -3.999375,2.518717 -3.999375,2.518717 l -0.05683,-4.750061 c 1.045865,-1.104134 2.415615,-1.903057 4.056195,-2.446796 z"
       id="path22852"
       sodipodi:nodetypes="ccccc" />
    <path
       style="display:inline;fill:none;fill-opacity:1;stroke:#0097ff;stroke-width:0.304808px;stroke-linecap:butt;stroke-linejoin:miter;stroke-opacity:1"
       d="m 95.621792,31.505377 c -0.216434,1.32102 -0.353402,2.883859 -0.370008,5.400702 0.626397,-1.291209 3.349581,-4.037035 3.349581,-4.037035 l -0.04368,-4.791882 c -1.086229,0.981764 -2.13377,2.021402 -2.935887,3.428215 z"
       id="path22854"
       sodipodi:nodetypes="cccccc" />
    <path
       style="display:inline;fill:none;stroke:#0097ff;stroke-width:0.272191px;stroke-linecap:butt;stroke-linejoin:miter;stroke-opacity:1"
       d="m 103.80051,25.256974 v 4.67814 c 1.38892,0.573683 3.99937,2.518717 3.99937,2.518717 l 0.0568,-4.750061 c -1.04586,-1.104134 -2.41561,-1.903057 -4.05619,-2.446796 z"
       id="path22852-5"
       sodipodi:nodetypes="ccccc" />
    <path
       style="display:inline;fill:none;stroke:#0097ff;stroke-width:0.304808px;stroke-linecap:butt;stroke-linejoin:miter;stroke-opacity:1"
       d="m 111.3373,31.546475 c 0.21643,1.32102 0.3534,2.883859 0.37001,5.400702 -0.6264,-1.291209 -3.34958,-4.037035 -3.34958,-4.037035 l 0.0437,-4.791882 c 1.08623,0.981764 2.13377,2.021402 2.93588,3.428215 z"
       id="path22854-1"
       sodipodi:nodetypes="cccccc" />
  </g>
  <g
     inkscape:groupmode="layer"
     id="layer2"
     inkscape:label="pipes"
     style="display:inline">
    <path
       id="path1829"
       style="fill:none;fill-opacity:1;stroke:#0097ff;stroke-width:1.51181;stroke-linecap:butt;stroke-linejoin:miter;stroke-miterlimit:4;stroke-dasharray:none;stroke-opacity:1"
       d="m 288.90602,391.82032 v -96.88867 l 19.88281,-0.01 -0.3164,-4.45899 c -2.50959,-4.62221 -11.96206,-6.74684 -21.51563,-6.79101 -10.16993,-0.0471 -20.4544,2.26213 -22.59961,6.42578 l -0.88086,4.82422 21.25391,0.004 -0.0625,98.56836 -83.2207,43.60156 0.24023,-16.09375 c 12.64192,-6.70258 50.05295,-26.64516 69.06836,-36.58007 l -0.0801,-19.56836 C 210.81284,395.25916 152.72693,427.0926 92.382812,460.15625 L 92.1875,478.125 l 104.58984,-55.01172 -0.3125,21.32422 c 29.54677,-15.5695 62.55666,-32.72078 92.43946,-48.37695 h 0.002 l 102.56445,0.0156 102.17188,-0.0176 h 0.002 c 29.8828,15.65617 62.76965,32.93246 92.31641,48.50196 l 0.49804,-20.57422 103.90235,54.13672 -0.19531,-17.96875 C 629.82174,427.09059 571.73596,395.25735 511.87305,364.85156 l -0.0801,19.56836 69.75195,37.26953 -0.44336,15.4043 -83.2207,-43.60156 v -98.54688 l 21.19141,-0.0254 -0.88086,-4.82422 c -2.14519,-4.16365 -12.42966,-6.47287 -22.59961,-6.42578 l 2e-5,10e-6 c -9.55355,0.0442 -19.00602,2.16881 -21.51563,6.79102 l -0.3164,4.45898 19.89453,0.0215 -0.01,96.8789 -99.8943,-0.008 v -22.5 h -5.4375 l -0.0625,22.5 z"
       sodipodi:nodetypes="ccccscccccccccccccccccccccccccccccscccccccccc"
       transform="scale(0.26458333)" />
  </g>
  <g
     inkscape:groupmode="layer"
     id="layer3"
     inkscape:label="bleedDist"
     style="display:inline" />
  <g
     inkscape:groupmode="layer"
     id="layer7"
     inkscape:label="leftWing"
     style="display:inline">
    <path
       style="fill:#ffb621;fill-opacity:1;stroke:#ffb600;stroke-width:0.565;stroke-linecap:butt;stroke-linejoin:miter;stroke-miterlimit:4;stroke-dasharray:none;stroke-opacity:1"
       d="m 63.896895,111.25717 -11.915573,6.33358 0.08268,-5.64203 -27.672729,14.55518 0.05168,-4.75423 c 15.970742,-8.77466 31.701291,-17.18904 47.173146,-25.215373 l 0.02133,5.177293 -18.274337,9.67847 -0.06356,4.25814 10.663515,-5.58165 z"
       id="path18676"
       sodipodi:nodetypes="ccccccccccc" />
  </g>
  <g
     inkscape:groupmode="layer"
     id="layer8"
     inkscape:label="rightWing"
     style="display:inline">
    <path
       style="fill:#ffb621;fill-opacity:1;stroke:#ffb621;stroke-width:0.565;stroke-linecap:butt;stroke-linejoin:miter;stroke-miterlimit:4;stroke-dasharray:none;stroke-opacity:1"
       d="m 143.16187,111.2792 11.91558,6.33358 0.005,-5.56018 27.58503,14.47333 -0.0517,-4.75423 C 167.4542,113.22587 151.59832,104.85362 135.44263,96.556327 l -0.0213,5.177293 18.27434,9.67847 0.0636,4.25814 -10.66352,-5.58165 z"
       id="path18676-4"
       sodipodi:nodetypes="ccccccccccc" />
  </g>
  <g
     inkscape:groupmode="layer"
     id="layer6"
     inkscape:label="rightEngine"
     style="display:inline">
    <path
       style="fill:#ffb621;fill-opacity:1;stroke:#ffb621;stroke-width:0.565;stroke-linecap:butt;stroke-linejoin:miter;stroke-miterlimit:4;stroke-dasharray:none;stroke-opacity:1"
       d="m 130.59417,90.112532 0.0249,-12.056504 -5.26066,-0.0026 0.0837,-1.179774 c 0.95467,-2.080174 9.49371,-2.685146 11.67228,-0.09638 l 0.23293,1.276157 -5.62343,0.0011 -0.005,12.058091 h -1.12448"
       id="path18678-0"
       sodipodi:nodetypes="ccccccccc" />
  </g>
  <g
     inkscape:groupmode="layer"
     id="layer5"
     inkscape:label="leftEngine"
     style="display:inline">
    <path
       style="fill:#ffb621;fill-opacity:1;stroke:#ffb621;stroke-width:0.565;stroke-linecap:butt;stroke-linejoin:miter;stroke-miterlimit:4;stroke-dasharray:none;stroke-opacity:1"
       d="m 76.464606,90.090502 -0.0249,-12.056504 5.26066,-0.0026 -0.08371,-1.179774 C 80.661985,74.77145 72.122937,74.166478 69.944369,76.755244 l -0.232931,1.276157 5.62343,0.0011 0.0053,12.058091 h 1.124479"
       id="path18678"
       sodipodi:nodetypes="ccccccccc" />
  </g>
  <g
     inkscape:groupmode="layer"
     id="layer4"
     inkscape:label="sourceBleed"
     style="display:inline">
    <path
       id="path18674"
       style="fill:#ffb621;fill-opacity:1;stroke:#ffb621;stroke-width:2.13543;stroke-linecap:butt;stroke-linejoin:miter;stroke-miterlimit:4;stroke-dasharray:none;stroke-opacity:1"
       d="m 493.67964,396.14235 47.40429,24.43945 -0.25,-4.5 -43,-22.75 v -52.75 l -4.24995,2e-4 0.0937,51.32031 -99.34375,-0.006 -0.0625,-22.5 v -0.002 l -5.93683,0.006 -0.0846,22.41161 -99.34375,0.008 L 289,340.5 h -4.25 v 52.75 l -43,22.75 -0.25,4.5 47.4043,-24.43945 z"
       transform="scale(0.26458333)"
       sodipodi:nodetypes="cccccccccccccccccccc" />
  </g>
  <g
     inkscape:groupmode="layer"
     id="layer10"
     inkscape:label="win1"
     style="display:inline">
    <path
       style="display:inline;fill:#ffb621;fill-opacity:1;stroke:#ffb621;stroke-width:0.304808px;stroke-linecap:butt;stroke-linejoin:miter;stroke-opacity:1"
       d="m 95.621792,31.505377 c -0.216434,1.32102 -0.353402,2.883859 -0.370008,5.400702 0.626397,-1.291209 3.349581,-4.037035 3.349581,-4.037035 l -0.04368,-4.791882 c -1.086229,0.981764 -2.13377,2.021402 -2.935887,3.428215 z"
       id="path22854-0"
       sodipodi:nodetypes="cccccc" />
  </g>
  <g
     inkscape:groupmode="layer"
     id="g65615"
     inkscape:label="win2"
     style="display:inline">
    <path
       style="display:inline;fill:#ffb621;fill-opacity:1;stroke:#ffb621;stroke-width:0.272191px;stroke-linecap:butt;stroke-linejoin:miter;stroke-opacity:1"
       d="m 103.11584,25.256974 v 4.67814 c -1.38892,0.573683 -3.999385,2.518717 -3.999385,2.518717 l -0.0568,-4.750061 c 1.045875,-1.104134 2.415625,-1.903057 4.056205,-2.446796 z"
       id="path22852-57"
       sodipodi:nodetypes="ccccc" />
  </g>
  <g
     inkscape:groupmode="layer"
     id="g65617"
     inkscape:label="win3"
     style="display:inline">
    <path
       style="display:inline;fill:#ffb621;fill-opacity:1;stroke:#ffb621;stroke-width:0.272191px;stroke-linecap:butt;stroke-linejoin:miter;stroke-opacity:1"
       d="m 103.80051,25.256974 v 4.67814 c 1.38892,0.573683 3.99937,2.518717 3.99937,2.518717 l 0.0568,-4.750061 c -1.04586,-1.104134 -2.41561,-1.903057 -4.05619,-2.446796 z"
       id="path22852-5-9"
       sodipodi:nodetypes="ccccc" />
  </g>
  <g
     inkscape:groupmode="layer"
     id="g65619"
     inkscape:label="win4"
     style="display:inline">
    <path
       style="display:inline;fill:#ffb621;fill-opacity:1;stroke:#ffb621;stroke-width:0.304808px;stroke-linecap:butt;stroke-linejoin:miter;stroke-opacity:1"
       d="m 111.3373,31.546475 c 0.21643,1.32102 0.3534,2.883859 0.37001,5.400702 -0.6264,-1.291209 -3.34958,-4.037035 -3.34958,-4.037035 l 0.0437,-4.791882 c 1.08623,0.981764 2.13377,2.021402 2.93588,3.428215 z"
       id="path22854-1-0"
       sodipodi:nodetypes="cccccc" />
  </g>
</svg>
