<svg id="eoIHSmDbRYQ1" xmlns="http://www.w3.org/2000/svg" xmlns:xlink="http://www.w3.org/1999/xlink" viewBox="0 0 165 334" shape-rendering="geometricPrecision" text-rendering="geometricPrecision" width="165" height="334"><g transform="matrix(.809905 0 0 1-1.343542 3.861707)"><path d="M105.966154,5.123138c0,0-60.915448,0-76.70991,13.977871-17.157208,49.326972-17.75269,89.123885-.259465,165.668761c46.131485-.002485,105.50377-.008282,153.771615-.008282c16.465398-76.920013,17.157207-116.333507-.000002-165.660479Q166.97393,5.123138,105.966154,5.123138Z" transform="translate(-1.98626-.008282)" stroke="#fff" stroke-linejoin="round"/><path d="M43.98491,184.76149c0,0,0,0,0,0Zm0,0h119.84755c-1.28075,0-5.76339,17.93055-13.44791,53.79164-61.96782,0-92.95173,0-92.95173,0-7.68452-35.8611-12.16716-53.79164-13.44791-53.79164Z" stroke="#fff" stroke-linejoin="round"/><path d="M127.72426,238.55313L105,321.16173c-8.92969-32.6228-16.50445-60.159-22.72426-82.6086h45.44852Z" transform="translate(-.710064 0)" stroke="#fff" stroke-linejoin="round"/><path d="" stroke="#fff"/></g></svg>