<?xml version="1.0" encoding="UTF-8" standalone="no"?>
<!-- Created with Inkscape (http://www.inkscape.org/) -->

<svg
   width="778.81061"
   height="847.16443"
   viewBox="0 0 206.06044 224.14557"
   version="1.1"
   id="svg5"
   sodipodi:docname="planeTempZones.svg"
   inkscape:version="1.1.2 (b8e25be833, 2022-02-05)"
   inkscape:export-filename="C:\workSpace\display\view\pic\planeZoneTemp.png"
   inkscape:export-xdpi="95.541473"
   inkscape:export-ydpi="95.541473"
   xmlns:inkscape="http://www.inkscape.org/namespaces/inkscape"
   xmlns:sodipodi="http://sodipodi.sourceforge.net/DTD/sodipodi-0.dtd"
   xmlns="http://www.w3.org/2000/svg"
   xmlns:svg="http://www.w3.org/2000/svg">
  <sodipodi:namedview
     id="namedview7"
     pagecolor="#505050"
     bordercolor="#eeeeee"
     borderopacity="1"
     inkscape:pageshadow="0"
     inkscape:pageopacity="0"
     inkscape:pagecheckerboard="0"
     inkscape:document-units="mm"
     showgrid="false"
     inkscape:zoom="1.28"
     inkscape:cx="380.85938"
     inkscape:cy="359.375"
     inkscape:window-width="1920"
     inkscape:window-height="1009"
     inkscape:window-x="-8"
     inkscape:window-y="-8"
     inkscape:window-maximized="1"
     inkscape:current-layer="layer4"
     units="px" />
  <defs
     id="defs2" />
  <g
     inkscape:label="Vrstva 1"
     inkscape:groupmode="layer"
     id="layer1"
     style="display:inline"
     transform="translate(0.45046477,0.44585261)">
    <path
       id="kopie Bez názvu"
       fill="none"
       stroke="#000000"
       stroke-width="2.09673"
       d="m 102.42897,0.15116544 c 0,0 -4.645178,-1.14651 -9.549258,28.78095956 -2.69246,12.03458 -1.75305,52.043886 -1.75305,52.043886 0,0 -5.87305,4.15699 -10.45168,8.88355 -0.0591,0.0591 -0.1109,0.11087 -0.14806,0.16271 0.38463,-5.3405 0.0591,-13.27727 0,-13.86161 -1.08732,-2.43354 -10.62179,-2.3078 -11.67215,-0.0963 -0.53257,2.79598 -0.9394,10.44429 0.2293,14.51991 0,0.0222 0.0222,0.0813 0.0222,0.0813 0,0 0.90241,4.24579 1.4202,5.17777 -11.83486,5.887899 -40.4531,21.369409 -48.44904,25.948039 -7.67049,4.02386 -13.6396897,7.21186 -17.1975597,9.43091 0,0 -0.0369,0.0222 -0.10359,0.0591 -1.51633,1.33141 -3.51346,2.18943 -4.05343998,5.3035 -0.6509,2.68503 -0.42161,5.36268 0,7.58172 0,0 1.33882998,-3.88331 2.40396998,-4.52686 1.89357,-2.13027 4.11261,-2.58887 6.28727,-2.95871 9.7489997,-2.91434 28.2927597,-10.00047 37.9603797,-12.38225 0,0 0.10359,4.07565 0.17005,4.1644 0.2219,0.9542 0.50298,1.22049 0.90981,1.25747 0.36984,-0.0517 0.74707,-0.2441 1.1539,-1.27966 0,-0.0887 0.0147,-4.80793 0.0147,-4.80793 0,0 16.15462,-3.6762 16.15462,-3.6762 0,0 -0.0147,3.10665 0.32546,3.7058 0.79145,2.29302 0.88761,1.81222 1.37579,0.45122 0.0222,-0.0591 0.17004,-0.42164 0.19227,-0.48082 0.2589,-0.77665 0.28849,-2.44094 0.31067,-4.3715 0,0 0.59914,-0.75447 2.21905,-0.85803 0,0 5.25171,0 5.25171,0 0,0 -0.14805,3.2546 -0.0518,3.93509 1.11692,3.44693 2.24125,0.0148 2.24125,0.0148 0.24408,-1.49415 0.1183,-3.4987 0.0962,-3.89071 2.79598,-0.51039 13.22548,0.0445 13.22548,0.0445 0,0 -0.51039,38.74443 0.0887,49.88401 0,0.0962 0.36984,12.20473 3.79455,21.17703 0,0 -33.38174,25.7039 -33.38174,25.7039 0,0 -0.41423,4.8523 0.18493,7.58172 0,0 23.66973,-7.72226 39.691208,-11.82009 0,0 -0.1627,1.83441 0.16271,2.47793 0.96898,3.65402 1.87138,0.007 1.90098,-0.0296 0.32546,-0.64352 0.13312,-2.47053 0.13312,-2.47053 16.01406,4.10522 39.68383,11.82009 39.68383,11.82009 0.60655,-2.72203 0.19228,-7.57433 0.19228,-7.57433 0,0 -33.3818,-25.71128 -33.3818,-25.71128 3.42474,-8.96493 3.79459,-21.08088 3.79459,-21.16966 0.59913,-11.13956 0.0887,-49.88403 0.0887,-49.88403 0,0 10.42209,-0.55475 13.22546,-0.0444 -0.0296,0.39204 -0.14805,2.38918 0.0963,3.89072 0,0 1.11691,3.43211 2.23384,-0.0221 0.10363,-0.67309 -0.0444,-3.92771 -0.0444,-3.92771 0,0 5.25173,0 5.25173,0 1.61989,0.10364 2.21163,0.85805 2.21163,0.85805 0.0221,1.93056 0.0591,3.59483 0.31065,4.36411 0.0221,0.0665 0.1776,0.42901 0.19982,0.48817 0.48822,1.36101 0.57697,1.84182 1.37581,-0.45119 0.33285,-0.59914 0.32546,-3.7058 0.32546,-3.7058 0,0 16.15463,3.66882 16.15463,3.66882 0,0 0.0148,4.71915 0.0148,4.81532 0.40681,1.03553 0.78405,1.22785 1.1539,1.27964 0.39942,-0.0369 0.68788,-0.30327 0.90981,-1.25745 0.0591,-0.0887 0.17005,-4.16439 0.17005,-4.16439 9.66761,2.37435 28.20397,9.46788 37.96037,12.37483 2.17464,0.36984 4.3937,0.83584 6.28728,2.95872 1.06514,0.65092 2.40396,4.53424 2.40396,4.53424 0.4142,-2.21905 0.6509,-4.90407 0,-7.58172 -0.53997,-3.12144 -2.54452,-3.97949 -4.06085,-5.30352 -0.0667,-0.0369 -0.0963,-0.0591 -0.0963,-0.0591 -3.56525,-2.21905 -9.5271,-5.40709 -17.20497,-9.43094 -7.99594,-4.57863 -36.61415,-20.06011 -48.44166,-25.955369 0.5178,-0.92459 1.41282,-5.17777 1.41282,-5.17777 0,0 0.0296,-0.0518 0.0296,-0.074 1.16871,-4.07563 0.75447,-11.72393 0.2293,-14.52733 -1.05032,-2.20423 -10.5848,-2.32999 -11.67216,0.0963 -0.0591,0.59174 -0.3846,8.52852 0,13.86161 -0.0444,-0.0445 -0.0887,-0.0962 -0.14776,-0.15538 -4.57861,-4.73395 -10.45908,-8.88356 -10.45908,-8.88356 0,0 0.94681,-40.009276 -1.74563,-52.051286 C 107.08861,-1.0101346 102.45081,0.13637544 102.45081,0.13637544 M 210.68818,55.449451"
       style="opacity:1;fill:none;fill-opacity:0;stroke:#ffffff;stroke-width:0.329;stroke-linejoin:round;stroke-miterlimit:4;stroke-dasharray:none;stroke-dashoffset:6.29;stroke-opacity:1" />
  </g>
  <g
     inkscape:groupmode="layer"
     id="layer3"
     inkscape:label="Vrstva 2"
     transform="translate(0.45046477,0.44585261)">
    <path
       style="fill:#000000;stroke:#0097ff;stroke-width:0.565;stroke-linecap:butt;stroke-linejoin:miter;stroke-miterlimit:4;stroke-dasharray:none;stroke-opacity:1;fill-opacity:1"
       d="M 91.717295,36.613837 C 92.600955,28.497228 97.132029,1.4088189 102.45081,0.13637544 108.6095,2.1614767 113.13018,36.540754 113.13018,36.540754 c 0,0 -16.084616,0.150725 -21.412885,0.07308 z"
       id="path1113"
       sodipodi:nodetypes="ccccc" />
  </g>
  <g
     inkscape:groupmode="layer"
     id="layer4"
     inkscape:label="Vrstva 3"
     transform="translate(0.45046477,0.44585261)">
    <path
       style="fill:#000000;stroke:#0097ff;stroke-width:0.565;stroke-linecap:butt;stroke-linejoin:miter;stroke-miterlimit:4;stroke-dasharray:none;stroke-opacity:1;fill-opacity:1"
       d="M 91.644215,38.857957 C 113.20082,38.711796 112.80608,38.7332 113.16007,38.7332 c 1.54827,32.446143 -0.0137,43.491126 0.70227,65.63239 l -22.830899,0.0908 c 0.123258,-21.014867 -0.59201,-43.089597 0.612774,-65.598443 z"
       id="path2308"
       sodipodi:nodetypes="ccccc"
       inkscape:export-filename="C:\workSpace\display\view\pic\planeZoneTemp.png"
       inkscape:export-xdpi="95.541473"
       inkscape:export-ydpi="95.541473" />
  </g>
  <g
     inkscape:groupmode="layer"
     id="layer5"
     inkscape:label="Vrstva 4"
     transform="translate(0.45046477,0.44585261)">
    <path
       style="fill:#000000;stroke:#0097ff;stroke-width:0.565;stroke-linecap:butt;stroke-linejoin:miter;stroke-miterlimit:4;stroke-dasharray:none;stroke-opacity:1;fill-opacity:1"
       d="m 90.937837,107.02861 c 21.556613,-0.14616 22.911123,-0.12475 22.911123,-0.12475 0.14566,29.25608 0.63775,54.45164 -0.30205,66.12256 l -22.291667,0.014 C 90.55168,153.88596 90.714909,129.79585 90.937837,107.02861 Z"
       id="path2308-0"
       sodipodi:nodetypes="ccccc"
       inkscape:export-filename="C:\workSpace\display\view\pic\planeZoneTemp.png"
       inkscape:export-xdpi="95.541473"
       inkscape:export-ydpi="95.541473" />
  </g>
</svg>
