<?xml version="1.0" encoding="UTF-8" standalone="no"?>
<!-- Created with Inkscape (http://www.inkscape.org/) -->

<svg
   width="210mm"
   height="297mm"
   viewBox="0 0 210 297"
   version="1.1"
   id="svg5"
   sodipodi:docname="plane.svg"
   inkscape:version="1.1.2 (b8e25be833, 2022-02-05)"
   xmlns:inkscape="http://www.inkscape.org/namespaces/inkscape"
   xmlns:sodipodi="http://sodipodi.sourceforge.net/DTD/sodipodi-0.dtd"
   xmlns="http://www.w3.org/2000/svg"
   xmlns:svg="http://www.w3.org/2000/svg">
  <sodipodi:namedview
     id="namedview7"
     pagecolor="#505050"
     bordercolor="#eeeeee"
     borderopacity="1"
     inkscape:pageshadow="0"
     inkscape:pageopacity="0"
     inkscape:pagecheckerboard="0"
     inkscape:document-units="mm"
     showgrid="false"
     inkscape:zoom="0.64"
     inkscape:cx="16.40625"
     inkscape:cy="826.5625"
     inkscape:window-width="1920"
     inkscape:window-height="1009"
     inkscape:window-x="-8"
     inkscape:window-y="-8"
     inkscape:window-maximized="1"
     inkscape:current-layer="layer1" />
  <defs
     id="defs2" />
  <g
     inkscape:label="Vrstva 1"
     inkscape:groupmode="layer"
     id="layer1">
    <path
       id="kopie Bez názvu"
       fill="none"
       stroke="#000000"
       stroke-width="2.09673"
       d="m 105.24856,269.84838 c 0,0 -4.64518,1.14651 -9.549258,-28.78096 -2.692457,-12.03458 -1.753051,-52.04389 -1.753051,-52.04389 0,0 -5.87305,-4.15699 -10.451678,-8.88355 -0.05908,-0.0591 -0.110895,-0.11087 -0.148058,-0.16271 0.384628,5.3405 0.05908,13.27727 0,13.86161 -1.087318,2.43354 -10.621796,2.3078 -11.672152,0.0963 -0.532569,-2.79598 -0.939397,-10.44429 0.229299,-14.51991 0,-0.0222 0.02222,-0.0813 0.02222,-0.0813 0,0 0.90241,-4.24579 1.4202,-5.17777 -11.834863,-5.8879 -40.4531,-21.36941 -48.44904,-25.94804 -7.670486,-4.02386 -13.639685,-7.21186 -17.1975622,-9.43091 0,0 -0.0369,-0.0222 -0.103582,-0.0591 -1.5163342,-1.33141 -3.5134679,-2.18943 -4.0534399,-5.3035 -0.6509083,-2.68503 -0.4216104,-5.36268 0,-7.58172 0,0 1.3388254,3.88331 2.4039634,4.52686 1.8935765,2.13027 4.1126087,2.58887 6.2872747,2.95871 9.748995,2.91434 28.29276,10.00047 37.960382,12.38225 0,0 0.103581,-4.07565 0.170044,-4.1644 0.221898,-0.9542 0.502985,-1.22049 0.909812,-1.25747 0.369843,0.0517 0.747066,0.2441 1.153895,1.27966 0,0.0887 0.01466,4.80793 0.01466,4.80793 0,0 16.154628,3.6762 16.154628,3.6762 0,0 -0.01466,-3.10665 0.325455,-3.7058 0.791452,-2.29302 0.887609,-1.81222 1.375789,-0.45122 0.02222,0.0591 0.170046,0.42164 0.192271,0.48082 0.258903,0.77665 0.288488,2.44094 0.310672,4.3715 0,0 0.59914,0.75447 2.219053,0.85803 0,0 5.251711,0 5.251711,0 0,0 -0.148059,-3.2546 -0.05182,-3.93509 1.116914,-3.44693 2.241246,-0.0148 2.241246,-0.0148 0.244076,1.49415 0.1183,3.4987 0.09624,3.89071 2.79598,0.51039 13.225479,-0.0445 13.225479,-0.0445 0,0 -0.510391,-38.74443 0.08869,-49.88401 0,-0.0962 0.369837,-12.20473 3.794547,-21.177029 0,0 -33.381741,-25.703895 -33.381741,-25.703895 0,0 -0.414229,-4.852302 0.184931,-7.581722 0,0 23.669737,7.722261 39.69121,11.820087 0,0 -0.1627,-1.834404 0.16271,-2.477926 0.96898,-3.65402 1.87138,-0.0075 1.90098,0.02957 0.32546,0.643522 0.13312,2.470532 0.13312,2.470532 16.01406,-4.105224 39.68383,-11.820088 39.68383,-11.820088 0.60655,2.722024 0.19228,7.574325 0.19228,7.574325 0,0 -33.3818,25.711284 -33.3818,25.711284 3.42474,8.964926 3.79459,21.080872 3.79459,21.169652 0.59913,11.13956 0.0887,49.88403 0.0887,49.88403 0,0 10.42209,0.55475 13.22546,0.0444 -0.0296,-0.39204 -0.14805,-2.38918 0.0963,-3.89072 0,0 1.11691,-3.43211 2.23384,0.0221 0.10363,0.67309 -0.0444,3.92771 -0.0444,3.92771 0,0 5.25173,0 5.25173,0 1.61989,-0.10364 2.21163,-0.85805 2.21163,-0.85805 0.0221,-1.93056 0.0591,-3.59483 0.31065,-4.36411 0.0221,-0.0665 0.1776,-0.42901 0.19982,-0.48817 0.48822,-1.36101 0.57697,-1.84182 1.37581,0.45119 0.33285,0.59914 0.32546,3.7058 0.32546,3.7058 0,0 16.15463,-3.66882 16.15463,-3.66882 0,0 0.0148,-4.71915 0.0148,-4.81532 0.40681,-1.03553 0.78405,-1.22785 1.1539,-1.27964 0.39942,0.0369 0.68788,0.30327 0.90981,1.25745 0.0591,0.0887 0.17005,4.16439 0.17005,4.16439 9.66761,-2.37435 28.20397,-9.46788 37.96037,-12.37483 2.17464,-0.36984 4.3937,-0.83584 6.28728,-2.95872 1.06514,-0.65092 2.40396,-4.53424 2.40396,-4.53424 0.4142,2.21905 0.6509,4.90407 0,7.58172 -0.53997,3.12144 -2.54452,3.97949 -4.06085,5.30352 -0.0667,0.0369 -0.0963,0.0591 -0.0963,0.0591 -3.56525,2.21905 -9.5271,5.40709 -17.20497,9.43094 -7.99594,4.57863 -36.61415,20.06011 -48.44166,25.95537 0.5178,0.92459 1.41282,5.17777 1.41282,5.17777 0,0 0.0296,0.0518 0.0296,0.074 1.16871,4.07563 0.75447,11.72393 0.2293,14.52733 -1.05032,2.20423 -10.5848,2.32999 -11.67216,-0.0963 -0.0591,-0.59174 -0.3846,-8.52852 0,-13.86161 -0.0444,0.0445 -0.0887,0.0962 -0.14776,0.15538 -4.57861,4.73395 -10.45908,8.88356 -10.45908,8.88356 0,0 0.94681,40.00928 -1.74563,52.05129 -4.91148,29.92003 -9.54928,28.77352 -9.54928,28.77352 m 108.23737,-55.31308"
       style="fill:#ff0000;stroke:#ffffff;stroke-width:0.529167;stroke-miterlimit:4;stroke-dasharray:none;stroke-opacity:1" />
  </g>
</svg>
