<?xml version="1.0" encoding="UTF-8" standalone="no"?>
<!-- Created with Inkscape (http://www.inkscape.org/) -->

<svg
   width="207mm"
   height="226mm"
   viewBox="0 0 207 226"
   version="1.1"
   id="svg5"
   sodipodi:docname="plane.svg"
   inkscape:version="1.1.2 (b8e25be833, 2022-02-05)"
   inkscape:export-filename="C:\workSpace\display\view\pic\planeDoors.png"
   inkscape:export-xdpi="83.82"
   inkscape:export-ydpi="83.82"
   xmlns:inkscape="http://www.inkscape.org/namespaces/inkscape"
   xmlns:sodipodi="http://sodipodi.sourceforge.net/DTD/sodipodi-0.dtd"
   xmlns="http://www.w3.org/2000/svg"
   xmlns:svg="http://www.w3.org/2000/svg">
  <sodipodi:namedview
     id="namedview7"
     pagecolor="#505050"
     bordercolor="#eeeeee"
     borderopacity="1"
     inkscape:pageshadow="0"
     inkscape:pageopacity="0"
     inkscape:pagecheckerboard="0"
     inkscape:document-units="mm"
     showgrid="false"
     inkscape:zoom="1.28"
     inkscape:cx="65.234375"
     inkscape:cy="181.25"
     inkscape:window-width="1920"
     inkscape:window-height="1009"
     inkscape:window-x="-8"
     inkscape:window-y="-8"
     inkscape:window-maximized="1"
     inkscape:current-layer="layer1"
     width="209mm" />
  <defs
     id="defs2" />
  <g
     inkscape:groupmode="layer"
     id="layer2"
     inkscape:label="Vrstva 2" />
  <g
     inkscape:label="Vrstva 1"
     inkscape:groupmode="layer"
     id="layer1">
    <path
       id="kopie Bez názvu"
       fill="none"
       stroke="#000000"
       stroke-width="2.09673"
       d="m 103.54013,0.86415167 c 0,0 4.64518,-1.14651 9.54926,28.78096033 2.69245,12.03458 1.75305,52.043885 1.75305,52.043885 0,0 5.87305,4.15699 10.45167,8.88355 0.0591,0.0591 0.1109,0.11087 0.14806,0.16271 -0.38463,-5.3405 -0.0591,-13.27727 0,-13.86161 1.08732,-2.43354 10.6218,-2.3078 11.67215,-0.0963 0.53257,2.79598 0.9394,10.44429 -0.22929,14.51991 0,0.0222 -0.0222,0.0813 -0.0222,0.0813 0,0 -0.90241,4.24579 -1.4202,5.17777 11.83486,5.887903 40.45309,21.369413 48.44903,25.948043 7.67049,4.02386 13.63969,7.21186 17.19756,9.43091 0,0 0.0369,0.0222 0.10358,0.0591 1.51634,1.33141 3.51347,2.18943 4.05344,5.3035 0.65091,2.68503 0.42162,5.36268 0,7.58172 0,0 -1.33882,-3.88331 -2.40396,-4.52686 -1.89358,-2.13027 -4.11261,-2.58887 -6.28727,-2.95871 -9.749,-2.91434 -28.29276,-10.00047 -37.96038,-12.38225 0,0 -0.10358,4.07565 -0.17004,4.1644 -0.2219,0.9542 -0.50299,1.22049 -0.90982,1.25747 -0.36984,-0.0517 -0.74706,-0.2441 -1.15389,-1.27966 0,-0.0887 -0.0147,-4.80793 -0.0147,-4.80793 0,0 -16.15463,-3.6762 -16.15463,-3.6762 0,0 0.0147,3.10665 -0.32545,3.7058 -0.79146,2.29302 -0.88761,1.81222 -1.37579,0.45122 -0.0222,-0.0591 -0.17005,-0.42164 -0.19227,-0.48082 -0.25891,-0.77665 -0.28849,-2.44094 -0.31068,-4.3715 0,0 -0.59914,-0.75447 -2.21905,-0.85803 0,0 -5.25171,0 -5.25171,0 0,0 0.14806,3.2546 0.0518,3.93509 -1.11691,3.44693 -2.24125,0.0148 -2.24125,0.0148 -0.24407,-1.49415 -0.1183,-3.4987 -0.0962,-3.89071 -2.79598,-0.51039 -13.22548,0.0445 -13.22548,0.0445 0,0 0.5104,38.74443 -0.0887,49.88401 0,0.0962 -0.36983,12.20473 -3.79454,21.17703 0,0 33.38174,25.70389 33.38174,25.70389 0,0 0.41423,4.85231 -0.18493,7.58173 0,0 -23.66974,-7.72226 -39.69121,-11.82009 0,0 0.1627,1.8344 -0.16271,2.47793 -0.96898,3.65402 -1.87138,0.007 -1.90098,-0.0296 -0.32546,-0.64353 -0.13312,-2.47054 -0.13312,-2.47054 -16.014062,4.10523 -39.683832,11.82009 -39.683832,11.82009 -0.60655,-2.72202 -0.19228,-7.57432 -0.19228,-7.57432 0,0 33.381804,-25.71129 33.381804,-25.71129 -3.42474,-8.96492 -3.794594,-21.08087 -3.794594,-21.16965 -0.59913,-11.13956 -0.0887,-49.88403 -0.0887,-49.88403 0,0 -10.42209,-0.55475 -13.22546,-0.0444 0.0296,0.39204 0.14805,2.38918 -0.0963,3.89072 0,0 -1.11691,3.43211 -2.23384,-0.0221 -0.10363,-0.67309 0.0444,-3.92771 0.0444,-3.92771 0,0 -5.25173,0 -5.25173,0 -1.61989,0.10364 -2.21163,0.85805 -2.21163,0.85805 -0.0221,1.93056 -0.0591,3.59483 -0.31065,4.36411 -0.0221,0.0665 -0.1776,0.42901 -0.19982,0.48817 -0.48822,1.36101 -0.57697,1.84182 -1.37581,-0.45119 -0.33285,-0.59914 -0.32546,-3.7058 -0.32546,-3.7058 0,0 -16.15463,3.66882 -16.15463,3.66882 0,0 -0.0148,4.71915 -0.0148,4.81532 -0.40681,1.03553 -0.78405,1.22785 -1.1539,1.27964 -0.39942,-0.0369 -0.68788,-0.30327 -0.90981,-1.25745 -0.0591,-0.0887 -0.17005,-4.16439 -0.17005,-4.16439 -9.66761,2.37435 -28.20397,9.46788 -37.96037,12.37483 -2.1746397,0.36984 -4.3936997,0.83584 -6.2872797,2.95872 -1.06514,0.65092 -2.4039602,4.53424 -2.4039602,4.53424 -0.4142,-2.21905 -0.6509,-4.90407 0,-7.58172 0.5399702,-3.12144 2.5445202,-3.97949 4.0608502,-5.30352 0.0667,-0.0369 0.0963,-0.0591 0.0963,-0.0591 3.56525,-2.21905 9.5270997,-5.40709 17.2049697,-9.43094 7.99594,-4.57863 36.61415,-20.06011 48.44166,-25.955373 -0.5178,-0.92459 -1.41282,-5.17777 -1.41282,-5.17777 0,0 -0.0296,-0.0518 -0.0296,-0.074 -1.16871,-4.07563 -0.75447,-11.72393 -0.2293,-14.52733 1.05032,-2.20423 10.5848,-2.32999 11.67216,0.0963 0.0591,0.59174 0.3846,8.52852 0,13.86161 0.0444,-0.0445 0.0887,-0.0962 0.14776,-0.15538 4.57861,-4.73395 10.459084,-8.88356 10.459084,-8.88356 0,0 -0.946814,-40.009275 1.74563,-52.051285 4.91148,-29.92003033 9.549278,-28.77352033 9.549278,-28.77352033 M -4.7190719,56.162467"
       style="fill:#ff0045;stroke:#ffffff;stroke-width:0.329;stroke-miterlimit:4;stroke-dasharray:none;stroke-opacity:1;fill-opacity:0" />
    <path
       style="fill:none;stroke:#0097ff;stroke-width:0.565;stroke-linecap:butt;stroke-linejoin:round;stroke-miterlimit:4;stroke-dasharray:none;stroke-opacity:1"
       d="m 93.110279,36.764433 c -0.133375,0.04001 -0.937613,6.904647 -0.648869,11.064059 1.534712,0 3.832123,0.04335 3.832123,0.04335 -0.05245,-4.800378 -0.03632,-5.341708 0.427027,-10.973246 -1.496301,-0.175133 -2.472978,-0.125632 -3.610281,-0.134163 z"
       id="path1102"
       sodipodi:nodetypes="ccccc" />
    <path
       style="fill:none;stroke:#0097ff;stroke-width:0.565;stroke-linecap:butt;stroke-linejoin:round;stroke-miterlimit:4;stroke-dasharray:none;stroke-opacity:1"
       d="m 113.96294,36.794528 c 0.13338,0.04001 0.93762,6.904647 0.64887,11.064059 -1.53471,0 -3.83212,0.04335 -3.83212,0.04335 0.0524,-4.800378 0.0363,-5.341708 -0.42703,-10.973246 1.4963,-0.175133 2.47298,-0.125632 3.61028,-0.134163 z"
       id="path1102-4"
       sodipodi:nodetypes="ccccc" />
    <path
       style="fill:none;stroke:#0097ff;stroke-width:0.565;stroke-linecap:butt;stroke-linejoin:round;stroke-miterlimit:4;stroke-dasharray:none;stroke-opacity:1"
       d="m 114.00576,178.26077 c 0.13337,-0.04 1.12031,-6.86811 1.01428,-11.06406 -1.53471,0 -3.7225,-0.0434 -3.7225,-0.0434 -0.31291,5.56774 -0.25603,6.25523 -0.90206,10.97324 1.4963,0.17514 2.47298,0.12564 3.61028,0.13417 z"
       id="path1102-8"
       sodipodi:nodetypes="cccccc" />
    <path
       style="fill:none;stroke:#0097ff;stroke-width:0.565;stroke-linecap:butt;stroke-linejoin:round;stroke-miterlimit:4;stroke-dasharray:none;stroke-opacity:1"
       d="m 93.109076,178.05327 c -0.13337,-0.04 -1.12031,-6.86811 -1.01428,-11.06406 1.53471,0 3.7225,-0.0434 3.7225,-0.0434 0.31291,5.56774 0.25603,6.25523 0.90206,10.97324 -1.4963,0.17514 -2.47298,0.12564 -3.61028,0.13417 z"
       id="path1102-8-5"
       sodipodi:nodetypes="cccccc" />
    <path
       style="fill:none;stroke:#ffffff;stroke-width:0.264583px;stroke-linecap:butt;stroke-linejoin:miter;stroke-opacity:1;fill-opacity:0"
       d="m 92.22338,81.674167 -0.169963,37.531203 v 0 0 0"
       id="path9691" />
    <path
       style="fill:none;stroke:#ffffff;stroke-width:0.264583px;stroke-linecap:butt;stroke-linejoin:miter;stroke-opacity:1;fill-opacity:0"
       d="m 114.84244,81.688997 0.16303,37.531213"
       id="path9693" />
    <path
       style="fill:none;stroke:#0097ff;stroke-width:0.565;stroke-linecap:square;stroke-linejoin:round;stroke-miterlimit:4;stroke-dasharray:none;stroke-opacity:1"
       d="m 97.073636,99.888871 c 0.05777,-5.145965 0.10663,-5.536344 0.0254,-11.351415 -1.53471,0 -4.960676,7.08e-4 -4.960676,7.08e-4 0.0765,5.062977 0.0423,6.152146 0.06807,11.335244 1.076577,0.01953 4.419678,0.0167 4.867213,0.01546 z"
       id="path1102-8-4"
       sodipodi:nodetypes="ccccc" />
    <path
       style="fill:none;stroke:#0097ff;stroke-width:0.565;stroke-linecap:square;stroke-linejoin:round;stroke-miterlimit:4;stroke-dasharray:none;stroke-opacity:1"
       d="m 97.074057,113.90896 c 0.05777,-5.14596 0.10663,-5.53634 0.0254,-11.35141 -1.53471,0 -4.960676,7.1e-4 -4.960676,7.1e-4 0.0765,5.06297 0.0423,6.15214 0.06807,11.33524 1.076577,0.0195 4.419678,0.0167 4.867213,0.0155 z"
       id="path1102-8-4-9"
       sodipodi:nodetypes="ccccc" />
    <path
       style="fill:none;stroke:#0097ff;stroke-width:0.565;stroke-linecap:square;stroke-linejoin:round;stroke-miterlimit:4;stroke-dasharray:none;stroke-opacity:1"
       d="m 114.924,99.919628 c 0.0578,-5.145965 0.10663,-5.536344 0.0254,-11.351415 -1.53471,0 -4.96067,7.08e-4 -4.96067,7.08e-4 0.0765,5.062977 0.0423,6.152146 0.0681,11.335244 1.07657,0.01953 4.41967,0.0167 4.86721,0.01546 z"
       id="path1102-8-4-5"
       sodipodi:nodetypes="ccccc" />
    <path
       style="fill:none;stroke:#0097ff;stroke-width:0.565;stroke-linecap:square;stroke-linejoin:round;stroke-miterlimit:4;stroke-dasharray:none;stroke-opacity:1"
       d="m 114.92442,113.93972 c 0.0578,-5.14596 0.10663,-5.53634 0.0254,-11.35141 -1.53471,0 -4.96067,7.1e-4 -4.96067,7.1e-4 0.0765,5.06297 0.0423,6.15214 0.0681,11.33524 1.07657,0.0195 4.41968,0.0167 4.86721,0.0155 z"
       id="path1102-8-4-9-6"
       sodipodi:nodetypes="ccccc" />
    <path
       style="fill:none;stroke:#0097ff;stroke-width:0.407302;stroke-linecap:square;stroke-linejoin:round;stroke-miterlimit:4;stroke-dasharray:none;stroke-opacity:1"
       d="m 114.95507,67.794521 c 0.03,-5.14596 0.0555,-5.53634 0.0132,-11.35141 -0.79755,0 -2.57796,7.1e-4 -2.57796,7.1e-4 0.0398,5.06297 0.022,6.15214 0.0353,11.33524 0.55947,0.0195 2.29681,0.0167 2.52939,0.0155 z"
       id="path1102-8-4-9-6-1"
       sodipodi:nodetypes="ccccc" />
    <path
       style="fill:none;stroke:#0097ff;stroke-width:0.407302;stroke-linecap:square;stroke-linejoin:round;stroke-miterlimit:4;stroke-dasharray:none;stroke-opacity:1"
       d="m 115.19869,150.96126 c 0.03,-5.14596 0.0555,-5.53634 0.0132,-11.35141 -0.79755,0 -2.57796,7.1e-4 -2.57796,7.1e-4 0.0398,5.06297 0.022,6.15214 0.0353,11.33524 0.55947,0.0195 2.29681,0.0167 2.52939,0.0155 z"
       id="path1102-8-4-9-6-1-4"
       sodipodi:nodetypes="ccccc" />
  </g>
</svg>
